<?xml version="1.0" encoding="UTF-8"?><svg xmlns="http://www.w3.org/2000/svg" xmlns:xlink="http://www.w3.org/1999/xlink" viewBox="0 0 3453.12 2160"><defs><style>.cls-1{fill:none;stroke:#000;stroke-linecap:round;stroke-linejoin:round;stroke-width:1.44px;}</style></defs><g id="Warstwa_3"><image width="3840" height="2402" transform="scale(.9)" xlink:href="aniamcja_warstwa_3.png"/></g><g id="Warstwa_1"><line class="cls-1" x1="668.38" y1="789.53" x2="1326.38" y2="1169.37"/><path class="cls-1" d="M2165.16,1612.96l-663.71-383.11.13-.13c-30.69-17.74-30.69-46.51,0-64.25l-.13.15,57.02-33.02h.01c30.69-17.73,30.69-46.5,0-64.24h-.01s-347.1-200.31-347.1-200.31v-.15c-30.68-17.74-80.44-17.74-111.13,0l-.13.15-31.49,18.17v-.13c-30.68,17.74-80.44,17.74-111.13,0l-.13.13-229.6-132.62"/><path class="cls-1" d="M989.82,1846.09l706.82-408.14.17-.13c10.21-5.93,26.77-5.93,36.98,0l-.11.13,401.27,231.62"/><path class="cls-1" d="M2045.41,821.85l266.5,153.85-.09-.03c51.17,29.55,51.17,77.47,0,107.02l.09.11-486.11,280.51h.17c-4.92,2.87-7.68,6.75-7.66,10.79.02,4.04,2.81,7.91,7.75,10.76l-.12-.04,443.93,253.87,651.21-375.98"/><line class="cls-1" x1="667" y1="788.7" x2="2149.12" y2="1644.43"/></g><g id="Warstwa_2"><image width="3840" height="2402" transform="scale(.9)" xlink:href="aniamcja_warstwa_1.png"/></g></svg>