<?xml version="1.0" encoding="UTF-8"?><svg id="Warstwa_1" xmlns="http://www.w3.org/2000/svg" viewBox="0 0 921.6 576.48"><path d="M500.24,346.14c-.26.32-1.04.43-1.32.81-.94,1.26.68,7.91-.07,10.5-.47,1.6-10.02,7.1-12.03,8.12-2.16,1.09-4.53,1.04-7.03,3.05-2.16,1.74-1.04,3.07-2.09,4.39-.39.49-8.64,4.97-9.18,4.94-.79-.05-1.42-.77-2.08-.89-2.27-.41-13.37,7.33-16.42,8.8-1.19.57-2.39,1.48-3.8,1.15-.84-.57-.58-17.74-.54-20.36.01-1.13.5-2.18.52-3.32.1-7-.85-16.47-.05-23.07.06-.53.02-1.04.51-1.4l46.69-27,7.5,7.35c-.63,4.14,1.12,24.87-.61,26.95Z"/></svg>