<svg xmlns="http://www.w3.org/2000/svg" xmlns:xlink="http://www.w3.org/1999/xlink" fill="none" viewBox="0 0 97 23">
  <g clip-path="url(#a)">
    <path fill="#479F5C" d="M24.03 6.37c-2.43 0-4.447.81-5.993 2.388s-2.341 3.582-2.341 5.927.795 4.393 2.37 5.956S21.732 23 24.279 23c3.034 0 5.36-1.165 6.92-3.45l.06-.088-2.872-1.681-.088-.044-.059.088c-.869 1.253-2.194 1.887-3.931 1.887-1.252 0-2.341-.31-3.21-.929-.84-.59-1.384-1.445-1.634-2.52h12.353v-.09c.103-.604.147-1.06.147-1.415 0-2.3-.75-4.29-2.223-5.912-1.487-1.651-3.401-2.477-5.713-2.477zm-3.078 4.29c.81-.664 1.826-1.003 3.048-1.003 1.075 0 2.017.31 2.812.944.766.59 1.28 1.489 1.516 2.668h-8.893c.236-1.09.751-1.975 1.517-2.61z"/>
    <path fill="#479F5C" d="M11.69 13.151c.222-.118.442-.25.634-.398.25-.191.5-.383.721-.604.103-.103.206-.221.31-.325a7 7 0 0 0 .5-.619c.059-.088.118-.177.191-.265a6.5 6.5 0 0 0 .928-2.256c0-.044.03-.103.03-.147.073-.399.132-.811.132-1.239v-.074a7 7 0 0 0-.132-1.238c0-.044-.03-.103-.03-.148a6.8 6.8 0 0 0-.928-2.255 3 3 0 0 0-.191-.266 10 10 0 0 0-.5-.619c-.104-.103-.192-.221-.31-.324a7 7 0 0 0-.721-.605c-.206-.147-.412-.265-.633-.398-.045-.03-.074-.03-.118-.059l-.059-.03C10.572.768 9.526.458 8.393.458H0v22.1h3.799v-8.492h3.327l4.889 8.434.029.059h4.653l-5.36-9.23s.133-.059.177-.088m-3.107-2.802H3.813V4.07h4.594c1.708 0 3.092 1.43 3.122 3.185-.03 1.77-1.4 3.184-3.122 3.184"/>
    <path fill="#1A1A1A" d="M65.624 6.237c-2.312 0-4.285.81-5.904 2.403-1.62 1.592-2.43 3.582-2.43 5.912s.825 4.32 2.43 5.912c1.604 1.592 3.592 2.403 5.904 2.403s4.314-.81 5.919-2.403 2.414-3.583 2.414-5.912c0-2.33-.81-4.32-2.414-5.912-1.605-1.593-3.593-2.403-5.92-2.403zm3.372 11.765c-.913.914-2.047 1.371-3.387 1.371s-2.474-.457-3.386-1.371q-1.37-1.371-1.37-3.45t1.37-3.45c.912-.914 2.046-1.371 3.386-1.371s2.474.457 3.387 1.37q1.368 1.372 1.369 3.45 0 2.08-1.37 3.45zM87.09 6.65h-3.386l-3.18 10.482-2.93-10.483h-3.799l4.594 15.82h3.74l3.21-10.394 3.224 10.394h3.46L97 6.65h-3.799l-2.96 10.468z"/>
    <path fill="#479F5C" d="M36.53 15.215v-.118c0-1.872 1.663-2.742 1.663-4.408a2.317 2.317 0 0 0-2.311-2.315 2.327 2.327 0 0 0-2.312 2.315c0 1.622 1.664 2.521 1.664 4.408v.118c0 1.902-1.664 2.345-1.664 4.409a2.317 2.317 0 0 0 2.312 2.315 2.327 2.327 0 0 0 2.311-2.315c0-1.961-1.663-2.536-1.663-4.409"/>
    <path fill="#1A1A1A" d="M45.982 6.443c0-2.153 1.134-3.214 3.446-3.258V0C44.76.044 42.39 2.197 42.39 6.443v.206h-2.37v3.465h2.37V22.47h3.592V10.114h2.474V6.65h-2.474v-.206zM51.901 0v22.47h3.534L55.376 0z"/>
  </g>
  <defs>
    <clipPath id="a">
      <path fill="#fff" d="M0 0h97v23H0z"/>
    </clipPath>
  </defs>
</svg>
