<svg width="97" height="28" viewBox="0 0 97 28" fill="none" xmlns="http://www.w3.org/2000/svg">
<g clip-path="url(#clip0_259_839)">
<path d="M24.0533 5.8116C21.6034 5.8116 19.5693 6.6087 18.0103 8.15942C16.4513 9.71015 15.6495 11.6812 15.6495 13.9855C15.6495 16.2899 16.4513 18.3044 18.04 19.8406C19.6287 21.3768 21.737 22.1594 24.3057 22.1594C27.3643 22.1594 29.7102 21.0145 31.2841 18.7681L31.3435 18.6812L28.4482 17.029L28.3591 16.9855L28.2997 17.0725C27.4237 18.3044 26.0874 18.9275 24.3354 18.9275C23.0733 18.9275 21.9746 18.6232 21.0986 18.0145C20.2523 17.4348 19.7029 16.5942 19.4505 15.5362H31.9077V15.4493C32.0116 14.8551 32.0562 14.4058 32.0562 14.058C32.0562 11.7971 31.2989 9.84058 29.8142 8.24638C28.3146 6.62319 26.3844 5.8116 24.0533 5.8116ZM20.9501 10.029C21.7667 9.37681 22.7912 9.04348 24.0236 9.04348C25.1075 9.04348 26.0577 9.34783 26.8595 9.97102C27.6316 10.5507 28.1512 11.4348 28.3888 12.5942H19.4208C19.6584 11.5217 20.178 10.6522 20.9501 10.029Z" fill="#479F5C"/>
<path d="M11.7891 12.4783C12.0118 12.3623 12.2345 12.2319 12.4275 12.087C12.6799 11.8986 12.9323 11.7101 13.1551 11.4928C13.259 11.3913 13.3629 11.2754 13.4669 11.1739C13.645 10.9855 13.8084 10.7826 13.9717 10.5652C14.0311 10.4783 14.0905 10.3913 14.1647 10.3043C14.6101 9.63768 14.9368 8.88406 15.1001 8.08696C15.1001 8.04348 15.1298 7.98551 15.1298 7.94203C15.204 7.55073 15.2634 7.14493 15.2634 6.72464V6.65217C15.2634 6.24638 15.204 5.84058 15.1298 5.43478C15.1298 5.3913 15.1001 5.33333 15.1001 5.28986C14.9219 4.49275 14.6101 3.73913 14.1647 3.07246C14.1053 2.98551 14.0459 2.89855 13.9717 2.81159C13.8084 2.5942 13.645 2.4058 13.4669 2.2029C13.3629 2.10145 13.2738 1.98551 13.1551 1.88406C12.9323 1.66667 12.6799 1.47826 12.4275 1.28986C12.2197 1.14493 12.0118 1.02899 11.7891 0.898551C11.7445 0.869565 11.7148 0.869565 11.6703 0.84058L11.6109 0.811594C10.6606 0.304348 9.60646 0 8.46319 0H0V21.7246H3.83071V13.3768H7.18628L12.1157 21.6667L12.1454 21.7246H16.8373L11.4327 12.6522C11.4327 12.6522 11.5664 12.5942 11.6109 12.5652M8.47803 9.81159H3.84555V3.55072H8.47803C10.2004 3.55072 11.596 4.95652 11.6257 6.68116C11.596 8.42029 10.2152 9.81159 8.47803 9.81159Z" fill="#479F5C"/>
<path d="M96.9852 9.69565V6.28986H93.0802V1.98551H89.4574V6.28986H86.5621V9.69565H89.4574V16.9565C89.4574 18.9855 90.0513 20.4058 91.2094 21.1739C92.026 21.7101 93.2287 21.9855 94.8025 21.9855C95.441 21.9855 96.2428 21.942 96.9852 21.8551V18.6522C96.1388 18.6957 95.3074 18.7101 94.7283 18.6667C94.1789 18.6377 93.7632 18.4928 93.4959 18.2319C93.2287 17.9855 93.0951 17.5507 93.0951 16.942V9.68116H97L96.9852 9.69565Z" fill="#1A1A1A"/>
<path d="M57.0745 14.087C57.0745 11.8261 56.2876 9.86957 54.7434 8.28986C53.1993 6.71015 51.3136 5.91304 49.131 5.91304C46.9484 5.91304 45.0331 6.71015 43.7413 8.30435V6.31884H40.1185V28H43.7413V19.8986C45.0182 21.4638 46.8296 22.2609 49.131 22.2609C51.4324 22.2609 53.1993 21.4638 54.7434 19.8986C56.2876 18.3333 57.0745 16.3768 57.0745 14.087ZM48.6114 9.28986C49.9922 9.28986 51.1652 9.75362 52.0857 10.6522C53.0063 11.5507 53.4665 12.7101 53.4665 14.087C53.4665 15.4638 53.0063 16.6232 52.0857 17.5217C51.1652 18.4203 50.007 18.8841 48.6114 18.8841C47.2157 18.8841 46.0575 18.4203 45.137 17.5217C44.2164 16.6232 43.7562 15.4638 43.7562 14.087C43.7562 12.7101 44.2164 11.5507 45.137 10.6522C46.0575 9.75362 47.2157 9.28986 48.6114 9.28986Z" fill="#1A1A1A"/>
<path d="M66.6216 22.2609C68.9676 22.2609 70.972 21.4638 72.5904 19.8986C74.2088 18.3333 75.0254 16.3768 75.0254 14.087C75.0254 11.7971 74.2088 9.84058 72.5904 8.27536C70.972 6.71015 68.9676 5.91304 66.6216 5.91304C64.2757 5.91304 62.301 6.71015 60.6677 8.27536C59.0345 9.84058 58.2178 11.7971 58.2178 14.087C58.2178 16.3768 59.0493 18.3333 60.6677 19.8986C62.2861 21.4638 64.2905 22.2609 66.6216 22.2609ZM63.2067 10.6957C64.1272 9.7971 65.2705 9.34783 66.6216 9.34783C67.9728 9.34783 69.116 9.7971 70.0366 10.6957C70.9572 11.5942 71.4174 12.7246 71.4174 14.087C71.4174 15.4493 70.9572 16.5797 70.0366 17.4783C69.116 18.3768 67.9728 18.8261 66.6216 18.8261C65.2705 18.8261 64.1272 18.3768 63.2067 17.4783C62.2861 16.5797 61.8258 15.4493 61.8258 14.087C61.8258 12.7246 62.2861 11.5942 63.2067 10.6957Z" fill="#1A1A1A"/>
<path d="M79.94 8.52174V6.30435H76.3171V21.8551H79.94V14.0145C79.94 12.4783 80.4151 11.3768 81.3357 10.7101C82.2711 10.0435 83.3846 9.73913 84.6615 9.82609H84.7803V6.01449H84.6615C82.4344 6.01449 80.8457 6.85507 79.94 8.50725V8.52174Z" fill="#1A1A1A"/>
<path d="M36.659 14.5797V14.4638C36.659 12.6232 38.3516 11.7536 38.3516 10.1159C38.3516 8.85507 37.2974 7.82609 36.0057 7.82609C34.7139 7.82609 33.6597 8.85507 33.6597 10.1159C33.6597 11.7101 35.3524 12.5942 35.3524 14.4638V14.5797C35.3524 16.4493 33.6597 16.8841 33.6597 18.9275C33.6597 20.1884 34.7139 21.2174 36.0057 21.2174C37.2974 21.2174 38.3516 20.1884 38.3516 18.9275C38.3516 17 36.659 16.4203 36.659 14.5797Z" fill="#479F5C"/>
</g>
<defs>
<clipPath id="clip0_259_839">
<rect width="97" height="28" fill="white"/>
</clipPath>
</defs>
</svg>
