<svg xmlns="http://www.w3.org/2000/svg" xmlns:xlink="http://www.w3.org/1999/xlink" fill="none" viewBox="0 0 97 28">
  <g clip-path="url(#a)">
    <path fill="#479F5C" d="M24.053 5.812c-2.45 0-4.484.797-6.043 2.347-1.559 1.551-2.36 3.522-2.36 5.826 0 2.305.801 4.32 2.39 5.856s3.697 2.318 6.266 2.318c3.058 0 5.404-1.144 6.978-3.39l.06-.088-2.896-1.652-.089-.044-.06.088c-.875 1.231-2.212 1.854-3.964 1.854-1.262 0-2.36-.304-3.236-.912-.847-.58-1.396-1.42-1.648-2.479h12.457v-.087c.104-.594.148-1.043.148-1.391 0-2.26-.757-4.217-2.242-5.812-1.5-1.623-3.43-2.434-5.76-2.434zm-3.103 4.217c.817-.652 1.841-.986 3.074-.986 1.084 0 2.034.305 2.835.928.773.58 1.292 1.464 1.53 2.623H19.42c.237-1.072.757-1.942 1.53-2.565"/>
    <path fill="#479F5C" d="M11.79 12.478a5 5 0 0 0 .638-.391c.252-.188.504-.377.727-.594.104-.102.208-.218.312-.32a7 7 0 0 0 .505-.608c.06-.087.119-.174.193-.26.445-.667.772-1.42.935-2.218 0-.044.03-.101.03-.145.074-.391.133-.797.133-1.217v-.073c0-.406-.059-.811-.133-1.217 0-.044-.03-.102-.03-.145a6.6 6.6 0 0 0-.935-2.218c-.06-.086-.12-.173-.193-.26a10 10 0 0 0-.505-.61c-.104-.1-.193-.216-.312-.318a7 7 0 0 0-.727-.594c-.208-.145-.416-.261-.639-.391-.044-.03-.074-.03-.119-.058l-.06-.03C10.66.305 9.607 0 8.464 0H0v21.725h3.83v-8.348h3.356l4.93 8.29.03.058h4.691l-5.404-9.073s.133-.058.178-.087M8.478 9.812H3.846V3.55h4.632c1.722 0 3.118 1.406 3.148 3.13-.03 1.74-1.41 3.13-3.148 3.13z"/>
    <path fill="#1A1A1A" d="M96.985 9.696V6.29H93.08V1.986h-3.623V6.29h-2.895v3.406h2.895v7.26c0 2.03.594 3.45 1.752 4.218.817.536 2.02.811 3.593.811.639 0 1.44-.043 2.183-.13v-3.203c-.846.044-1.678.058-2.257.015-.55-.03-.965-.174-1.232-.435-.267-.247-.4-.681-.4-1.29v-7.26H97zm-39.91 4.391c0-2.26-.787-4.217-2.332-5.797s-3.43-2.377-5.612-2.377-4.098.797-5.39 2.391V6.32h-3.623V28h3.623v-8.101c1.277 1.565 3.089 2.362 5.39 2.362s4.068-.797 5.612-2.362c1.545-1.566 2.331-3.522 2.331-5.812zM48.61 9.29c1.381 0 2.554.464 3.475 1.362.92.899 1.38 2.058 1.38 3.435s-.46 2.536-1.38 3.435c-.92.898-2.079 1.362-3.475 1.362s-2.553-.464-3.474-1.362c-.92-.899-1.38-2.058-1.38-3.435s.46-2.536 1.38-3.435c.92-.898 2.079-1.362 3.474-1.362m18.012 12.97c2.346 0 4.35-.796 5.968-2.361s2.435-3.522 2.435-5.812-.816-4.246-2.435-5.812c-1.618-1.565-3.623-2.362-5.968-2.362-2.346 0-4.321.797-5.954 2.362-1.634 1.566-2.45 3.522-2.45 5.812s.831 4.246 2.45 5.812c1.618 1.565 3.622 2.362 5.954 2.362zm-3.415-11.564c.92-.899 2.063-1.348 3.415-1.348 1.35 0 2.494.45 3.415 1.348q1.38 1.348 1.38 3.391c0 2.043-.46 2.493-1.38 3.391-.921.899-2.064 1.348-3.415 1.348-1.352 0-2.495-.45-3.415-1.348q-1.38-1.347-1.381-3.391c-.001-2.044.46-2.493 1.38-3.391zM79.94 8.522V6.304h-3.623v15.551h3.623v-7.84c0-1.537.475-2.638 1.396-3.305.935-.667 2.049-.97 3.326-.884h.118V6.014h-.118c-2.228 0-3.816.841-4.722 2.493z"/>
    <path fill="#479F5C" d="M36.659 14.58v-.116c0-1.84 1.693-2.71 1.693-4.348 0-1.26-1.055-2.29-2.346-2.29s-2.346 1.03-2.346 2.29c0 1.594 1.692 2.478 1.692 4.348v.116c0 1.87-1.692 2.304-1.692 4.347 0 1.261 1.054 2.29 2.346 2.29 1.291 0 2.346-1.029 2.346-2.29 0-1.927-1.693-2.507-1.693-4.347"/>
  </g>
  <defs>
    <clipPath id="a">
      <path fill="#fff" d="M0 0h97v28H0z"/>
    </clipPath>
  </defs>
</svg>
