<svg xmlns="http://www.w3.org/2000/svg" xmlns:xlink="http://www.w3.org/1999/xlink" fill="none" viewBox="0 0 32 7">
  <g clip-path="url(#a)">
    <path fill="#00BDFF" d="M6.973 1.958c-.697 0-1.276.243-1.72.715s-.67 1.072-.67 1.773.227 1.315.68 1.782c.451.468 1.05.706 1.781.706.87 0 1.538-.349 1.985-1.032l.017-.027-.823-.503-.026-.013-.016.027c-.25.375-.63.564-1.128.564-.36 0-.672-.092-.92-.278a1.23 1.23 0 0 1-.47-.754h3.544v-.026a3 3 0 0 0 .042-.424c0-.688-.215-1.283-.638-1.769-.426-.494-.975-.74-1.638-.74zM6.09 3.242q.349-.3.874-.3.464 0 .807.282c.22.177.367.446.435.799H5.655c.068-.327.215-.591.435-.781"/>
    <path fill="#00BDFF" d="M3.353 3.992q.098-.053.182-.12c.072-.057.143-.114.207-.18l.089-.097a3 3 0 0 0 .198-.265c.127-.203.22-.432.266-.675 0-.013.009-.03.009-.044.02-.119.038-.242.038-.37v-.022a2 2 0 0 0-.038-.37c0-.014-.009-.032-.009-.045a2.1 2.1 0 0 0-.266-.675q-.025-.04-.055-.08a3 3 0 0 0-.143-.184C3.8.834 3.776.798 3.74.767a2 2 0 0 0-.206-.18c-.06-.044-.118-.08-.182-.12C3.341.46 3.333.46 3.32.45L3.303.44a1.8 1.8 0 0 0-.896-.247H0v6.612h1.09v-2.54h.954l1.402 2.522.009.018h1.334l-1.537-2.76s.038-.018.05-.027m-.89-.838H1.094V1.275h1.318c.49 0 .886.428.895.952-.009.53-.401.953-.895.953"/>
    <path fill="#1A1A1A" d="m25.095 5.641-1.23-3.497h-1.19l1.833 4.737h1.161l1.833-4.737h-1.187zm-11.352 0-1.234-3.497h-1.186l1.833 4.737h1.161l1.833-4.737h-1.187zm2.909.64c.46.476 1.031.719 1.694.719s1.238-.243 1.698-.719.692-1.072.692-1.769-.232-1.292-.692-1.768a2.28 2.28 0 0 0-1.698-.72c-.667 0-1.229.243-1.694.72-.464.476-.696 1.071-.696 1.768s.236 1.293.697 1.769zm.727-2.8q.394-.411.971-.411.578 0 .972.41.393.411.392 1.032 0 .623-.392 1.032-.394.41-.972.41a1.3 1.3 0 0 1-.971-.41q-.393-.41-.393-1.032 0-.621.393-1.032zM22.223 0h-1.03v6.88h1.03zm5.79 6.294c.452.468 1.052.706 1.782.706.87 0 1.555-.38 2.002-1.063l-.823-.503-.026-.013c-.249.375-.646.591-1.144.591q-.546 0-.92-.278a1.25 1.25 0 0 1-.47-.754h3.544v-.027A3 3 0 0 0 32 4.53c0-.688-.215-1.284-.638-1.769-.422-.485-.975-.728-1.638-.728-.697 0-1.276.243-1.72.715s-.67 1.072-.67 1.773c0 .706.227 1.306.68 1.773zm1.702-3.29q.463-.002.807.282c.22.18.363.45.43.798h-2.55c.067-.326.215-.59.439-.78.232-.199.528-.3.874-.3"/>
    <path fill="#00BDFF" d="M10.533 4.503v-.035c0-.569.486-.838.486-1.345 0-.393-.305-.706-.676-.706s-.676.318-.676.706c0 .494.486.767.486 1.345v.035c0 .578-.486.715-.486 1.346 0 .392.304.706.676.706.371 0 .676-.318.676-.706 0-.596-.486-.772-.486-1.346"/>
  </g>
  <defs>
    <clipPath id="a">
      <path fill="#fff" d="M0 0h32v7H0z"/>
    </clipPath>
  </defs>
</svg>
